#!OML:ASF Y:\EmotionMaleHayes\Project 1\Capture day 1\Session 1\Male1.ASF
:FULLY-SPECIFIED
:DEGREES
501
root -22.658 16.8971 -14.777 -1.82677 123.17 2.20779
lowerback 5.47195 0.248608 -1.31085
upperback 2.88253 0.356679 -0.144155
thorax -0.110647 0.203777 0.56777
lowerneck -19.2088 -4.78356 -0.345648
upperneck 34.8974 -7.43148 4.69986
head 15.8111 -1.94429 0.808531
rclavicle -5.48894e-014 1.07344e-014
rhumerus -36.7857 8.34069 -80.8111
rradius 53.1516
rwrist 2.44753
rhand -12.5148 -31.8334
rfingers 7.12502
rthumb 13.5609 -61.3718
lclavicle -5.48894e-014 1.07344e-014
lhumerus -28.4356 -10.0571 81.0391
lradius 31.9028
lwrist -19.9018
lhand -12.5054 -24.8154
lfingers 7.12502
lthumb 13.57 4.72236
rfemur 10.7938 -10.6803 22.4044
rtibia 9.55573
rfoot -20.2898 0.66221
rtoes 13.5448
lfemur 7.56231 4.47858 0.105338
ltibia 36.1843
lfoot -8.09945 16.1275
ltoes 9.84849
502
root -22.6062 16.8894 -14.7962 -1.31255 122.684 2.50919
lowerback 5.38832 0.324263 -0.862436
upperback 2.8547 0.476863 -0.0385511
thorax -0.0930845 0.266445 0.418533
lowerneck -19.4521 -4.5785 -0.0110343
upperneck 35.053 -7.2173 4.59653
head 15.9163 -1.81197 0.746558
rclavicle -7.81969e-014 -9.14409e-015
rhumerus -36.4539 8.4249 -80.8585
rradius 53.8489
rwrist 3.33463
rhand -14.5524 -31.6492
rfingers 7.12502
rthumb 11.5964 -61.3083
lclavicle -7.81969e-014 -9.14409e-015
lhumerus -29.2869 -8.10482 80.3823
lradius 31.1441
lwrist -20.6917
lhand -12.7009 -24.7953
lfingers 7.12502
lthumb 13.3815 4.75497
rfemur 11.056 -10.5941 22.6125
rtibia 8.92886
rfoot -20.1561 1.07264
rtoes 13.578
lfemur 6.56208 4.71389 -0.0543353
ltibia 36.7411
lfoot -9.88739 15.9074
ltoes 8.90073
503
root -22.5529 16.8848 -14.8173 -1.10546 122.264 2.59828
lowerback 5.47758 0.362465 -0.525911
upperback 2.83206 0.542308 0.0223862
thorax -0.164741 0.302085 0.287967
lowerneck -19.2082 -4.66355 -0.0113321
upperneck 35.1252 -7.33891 4.64495
head 15.9016 -1.85046 0.751453
rclavicle 3.32964e-014 6.16232e-015
rhumerus -36.0152 8.84272 -81.0443
rradius 54.2256
rwrist 3.44963
rhand -12.8296 -32.4819
rfingers 7.12502
rthumb 13.2575 -62.0403
lclavicle 3.32964e-014 6.16232e-015
lhumerus -30.2523 -6.17014 79.6128
lradius 30.4539
lwrist -21.4252
lhand -12.827 -24.9128
lfingers 7.12502
lthumb 13.26 4.64539
rfemur 11.1848 -10.9994 22.4394
rtibia 8.96648
rfoot -20.2829 1.87624
rtoes 13.364
lfemur 5.79084 4.72389 -0.435384
ltibia 36.9883
lfoot -11.4814 15.8947
ltoes 8.55106
504
root -22.4957 16.8799 -14.8388 -1.04496 121.917 2.63981
lowerback 5.61193 0.361846 -0.26571
upperback 2.85776 0.555848 0.0920561
thorax -0.211585 0.311781 0.211788
lowerneck -19.0905 -4.63146 0.0542924
upperneck 35.1779 -7.34368 4.76476
head 15.9052 -1.82084 0.795241
rclavicle -7.80727e-014 3.57812e-015
rhumerus -35.4054 9.55894 -81.1483
rradius 54.4867
rwrist 3.25137
rhand -15.0143 -31.72
rfingers 7.12502
rthumb 11.1509 -61.4037
lclavicle -7.80727e-014 3.57812e-015
lhumerus -31.4852 -4.69956 78.9037
lradius 30.0637
lwrist -21.7947
lhand -13.1239 -24.8386
lfingers 7.12502
lthumb 12.9738 4.73802
rfemur 11.6537 -11.2305 22.2917
rtibia 8.60486
rfoot -20.3011 2.49738
rtoes 13.4651
lfemur 5.14681 4.46492 -0.972676
ltibia 37.0685
lfoot -12.3074 16.517
ltoes 7.2789
505
root -22.4373 16.8723 -14.8571 -0.505206 121.543 3.14037
lowerback 5.63386 0.390343 0.146145
upperback 2.86937 0.615836 0.256925
thorax -0.209949 0.344959 0.146398
lowerneck -18.9811 -4.62042 0.165787
upperneck 35.2648 -7.37895 4.84059
head 15.924 -1.80122 0.8072
rclavicle -1.35298e-014 4.17448e-015
rhumerus -34.8649 10.0039 -81.1409
rradius 55.003
rwrist 3.46595
rhand -16.3925 -31.4303
rfingers 7.12502
rthumb 9.82152 -61.1813
lclavicle -1.35298e-014 4.17448e-015
lhumerus -32.5628 -2.91597 78.1226
lradius 29.4601
lwrist -22.537
lhand -13.5451 -24.8025
lfingers 7.12502
lthumb 12.5677 4.79951
rfemur 12.234 -11.6062 22.3759
rtibia 7.86855
rfoot -20.076 3.50766
rtoes 14.8444
lfemur 4.30351 4.73765 -0.887304
ltibia 37.2134
lfoot -12.8519 16.8758
ltoes 5.05161
506
root -22.381 16.8673 -14.8745 0.114085 121.091 3.68144
lowerback 5.6586 0.472721 0.608712
upperback 2.87097 0.75018 0.390416
thorax -0.218281 0.416043 0.0160663
lowerneck -18.8578 -4.61916 0.355351
upperneck 35.3235 -7.437 4.86533
head 15.9192 -1.7897 0.779013
rclavicle 1.63376e-014 -5.46658e-015
rhumerus -34.5063 10.0467 -81.1437
rradius 55.7596
rwrist 3.89439
rhand -16.3004 -31.5476
rfingers 7.12502
rthumb 9.91031 -61.2943
lclavicle 1.63376e-014 -5.46658e-015
lhumerus -33.6859 -1.84781 77.4997
lradius 29.0421
lwrist -22.7518
lhand -13.8753 -24.6966
lfingers 7.12502
lthumb 12.2493 4.92467
rfemur 12.2805 -11.6744 22.5999
rtibia 7.90323
rfoot -20.2027 4.34902
rtoes 16.7637
lfemur 3.49548 4.91977 -0.887553
ltibia 37.21
lfoot -13.6905 16.9911
ltoes 2.4393
507
root -22.3251 16.86 -14.8892 1.02154 120.524 4.36598
lowerback 5.58382 0.553633 1.11119
upperback 2.82058 0.881285 0.526852
thorax -0.222513 0.484585 -0.132569
lowerneck -18.7231 -4.5774 0.488692
upperneck 35.3619 -7.44315 4.97129
head 15.9081 -1.75417 0.805078
rclavicle 1.78906e-014 -3.37934e-015
rhumerus -34.1457 10.1111 -81.2113
rradius 56.4642
rwrist 4.25438
rhand -16.2269 -31.6138
rfingers 7.12502
rthumb 9.98128 -61.3572
lclavicle 1.78906e-014 -3.37934e-015
lhumerus -34.8508 -0.503596 76.7411
lradius 28.6145
lwrist -23.1901
lhand -14.1902 -24.8097
lfingers 7.12502
lthumb 11.9457 4.82951
rfemur 12.2707 -11.3188 23.1288
rtibia 7.55327
rfoot -20.0941 4.77094
rtoes 18.1327
lfemur 2.58103 5.09599 -0.884992
ltibia 37.2287
lfoot -14.8566 16.7486
ltoes 0.426579
508
root -22.2683 16.8477 -14.9027 2.37842 119.937 5.33459
lowerback 5.29626 0.611651 1.64314
upperback 2.72111 0.97719 0.758215
thorax -0.158761 0.534334 -0.195508
lowerneck -18.7657 -4.48912 0.514693
upperneck 35.6481 -7.33461 5.03706
head 16.0614 -1.67396 0.857116
rclavicle -3.07184e-014 9.93923e-017
rhumerus -33.6475 10.3529 -81.2771
rradius 56.9358
rwrist 4.38897
rhand -16.6932 -31.7418
rfingers 7.12502
rthumb 9.53133 -61.5063
lclavicle -3.07184e-014 9.93923e-017
lhumerus -36.1313 0.755638 76.0696
lradius 28.2591
lwrist -23.2625
lhand -14.4251 -24.924
lfingers 7.12502
lthumb 11.7192 4.72818
rfemur 12.0715 -11.1157 23.7971
rtibia 7.19824
rfoot -19.9669 5.26849
rtoes 18.8676
lfemur 1.06057 5.65679 -0.598596
ltibia 37.9498
lfoot -16.3767 16.2648
ltoes -0.953476
509
root -22.2127 16.8423 -14.9226 3.15336 119.549 5.85314
lowerback 5.16646 0.611292 1.99276
upperback 2.68688 0.991714 0.961695
thorax -0.118925 0.543934 -0.181829
lowerneck -18.7326 -4.42083 0.437317
upperneck 35.7853 -7.21727 5.09815
head 16.126 -1.61807 0.924127
rclavicle 1.94793e-014 -1.72384e-015
rhumerus -33.131 10.5724 -81.2621
rradius 57.3619
rwrist 4.4498
rhand -17.4188 -31.6495
rfingers 7.12502
rthumb 8.83124 -61.4447
lclavicle 1.94793e-014 -1.72384e-015
lhumerus -37.2509 2.39303 75.2457
lradius 27.641
lwrist -23.7698
lhand -14.3801 -25.2201
lfingers 7.12502
lthumb 11.7625 4.42964
rfemur 12.101 -11.4725 23.9023
rtibia 7.02747
rfoot -19.9426 5.98321
rtoes 18.0307
lfemur -0.15478 5.84767 -0.741916
ltibia 38.206
lfoot -17.4505 16.2254
ltoes -1.96614
510
root -22.1542 16.8451 -14.9481 3.45933 119.271 6.07177
lowerback 5.22746 0.697795 2.35115
upperback 2.71675 1.12673 0.964363
thorax -0.112582 0.616074 -0.387165
lowerneck -18.7196 -4.45781 0.681957
upperneck 35.8024 -7.37385 5.15165
head 16.1308 -1.63624 0.87671
rclavicle -4.35137e-014 -3.10601e-016
rhumerus -32.7521 10.1811 -81.3314
rradius 57.8647
rwrist 4.79821
rhand -17.616 -31.6518
rfingers 7.12502
rthumb 8.64093 -61.455
lclavicle -4.35137e-014 -3.10601e-016
lhumerus -38.2788 2.94868 74.5722
lradius 27.1549
lwrist -23.778
lhand -14.3718 -25.1772
lfingers 7.12502
lthumb 11.7706 4.4721
rfemur 12.4777 -11.8931 23.7396
rtibia 6.62215
rfoot -19.7611 6.74549
rtoes 17.6222
lfemur -1.15546 5.74941 -1.14981
ltibia 38.2884
lfoot -18.2959 16.2856
ltoes -0.739275
